<?xml version="1.0" encoding="utf-8"?>
<!-- Generator: Adobe Illustrator 21.0.0, SVG Export Plug-In . SVG Version: 6.00 Build 0)  -->
<svg version="1.1" xmlns="http://www.w3.org/2000/svg" xmlns:xlink="http://www.w3.org/1999/xlink" x="0px" y="0px"
	 viewBox="0 0 327.3 327.3" style="enable-background:new 0 0 327.3 327.3;" xml:space="preserve">
<style type="text/css">
	.st0{display:none;}
	.st1{display:inline;fill:none;stroke:#3B2288;stroke-width:10;stroke-miterlimit:10;}
	.st2{display:inline;fill:none;stroke:url(#SVGID_1_);stroke-width:34;stroke-miterlimit:10;}
	.st3{display:inline;fill:url(#SVGID_2_);stroke:url(#SVGID_3_);stroke-miterlimit:10;}
	.st4{display:inline;fill:#3B2288;}
	.st5{fill:url(#SVGID_4_);}
	.st6{fill:none;stroke:#3B2288;stroke-width:10;stroke-miterlimit:10;}
	.st7{fill:#392184;}
	.st8{fill:none;stroke:#392184;stroke-width:10;stroke-miterlimit:10;}
</style>
<g id="Clock" class="st0">
	<circle class="st1" cx="162.5" cy="163.5" r="150.5"/>
</g>
<g id="Layer_5" class="st0">
	<linearGradient id="SVGID_1_" gradientUnits="userSpaceOnUse" x1="93.6656" y1="219.7804" x2="236.22" y2="49.8907">
		<stop  offset="0" style="stop-color:#FFFFFF;stop-opacity:0"/>
		<stop  offset="1" style="stop-color:#26A8CC"/>
	</linearGradient>
	<path class="st2" d="M279.5,163.5c0-65.2-52.8-118-118-118s-118,52.8-118,118"/>
	<linearGradient id="SVGID_2_" gradientUnits="userSpaceOnUse" x1="160.471" y1="237.3333" x2="160.471" y2="224.8295">
		<stop  offset="0" style="stop-color:#FFFFFF;stop-opacity:0"/>
		<stop  offset="0.5842" style="stop-color:#7EBDD9"/>
	</linearGradient>
	<linearGradient id="SVGID_3_" gradientUnits="userSpaceOnUse" x1="134.6057" y1="261.9065" x2="186.3363" y2="200.2564">
		<stop  offset="0" style="stop-color:#FFFFFF;stop-opacity:0"/>
		<stop  offset="1" style="stop-color:#26A8CC"/>
	</linearGradient>
	<rect x="106.4" y="224.8" class="st3" width="108.1" height="12.5"/>
</g>
<g id="Rectangle" class="st0">
</g>
<g id="Layer_3" class="st0">
	<path class="st4" d="M56,166.7H31.3c-2.2,0-4-1.8-4-4v0c0-2.2,1.8-4,4-4H56c2.2,0,4,1.8,4,4v0C60,164.9,58.2,166.7,56,166.7z"/>
	<path class="st4" d="M68.3,113.7l-21.4-12.3c-1.9-1.1-2.6-3.6-1.5-5.5l0,0c1.1-1.9,3.6-2.6,5.5-1.5l21.4,12.3
		c1.9,1.1,2.6,3.6,1.5,5.5l0,0C72.6,114.1,70.2,114.8,68.3,113.7z"/>
	<path class="st4" d="M106,73.6L93.7,52.2c-1.1-1.9-0.4-4.4,1.5-5.5l0,0c1.9-1.1,4.4-0.4,5.5,1.5L113,69.6c1.1,1.9,0.4,4.4-1.5,5.5
		l0,0C109.6,76.2,107.1,75.5,106,73.6z"/>
	<path class="st4" d="M158.5,57.4V32.7c0-2.2,1.8-4,4-4l0,0c2.2,0,4,1.8,4,4v24.7c0,2.2-1.8,4-4,4l0,0
		C160.3,61.4,158.5,59.6,158.5,57.4z"/>
	<path class="st4" d="M212.1,69.6l12.3-21.4c1.1-1.9,3.6-2.6,5.5-1.5l0,0c1.9,1.1,2.6,3.6,1.5,5.5L219,73.6
		c-1.1,1.9-3.6,2.6-5.5,1.5l0,0C211.7,74,211,71.5,212.1,69.6z"/>
	<path class="st4" d="M252.2,107.4L273.5,95c1.9-1.1,4.4-0.4,5.5,1.5v0c1.1,1.9,0.4,4.4-1.5,5.5l-21.4,12.3
		c-1.9,1.1-4.4,0.4-5.5-1.5v0C249.6,110.9,250.3,108.5,252.2,107.4z"/>
	<path class="st4" d="M268.2,159.7h24.7c2.2,0,4,1.8,4,4l0,0c0,2.2-1.8,4-4,4h-24.7c-2.2,0-4-1.8-4-4l0,0
		C264.2,161.5,266,159.7,268.2,159.7z"/>
	<circle class="st1" cx="162.5" cy="163.5" r="16.5"/>
	<path class="st4" d="M173.7,146.4l42.4-44.2c1.5-1.6,4.1-1.6,5.7-0.1l0.9,0.9c1.6,1.5,1.6,4.1,0.1,5.7l-42.4,44.2
		c-1.5,1.6-4.1,1.6-5.7,0.1l-0.9-0.9C172.2,150.6,172.2,148,173.7,146.4z"/>
	<path class="st1" d="M206.7,264.8h-88.3c-6.6,0-12-5.4-12-12v-18.9c0-6.6,5.4-12,12-12h88.3c6.6,0,12,5.4,12,12v18.9
		C218.7,259.4,213.3,264.8,206.7,264.8z"/>
</g>
<g id="Layer_6">
	<linearGradient id="SVGID_4_" gradientUnits="userSpaceOnUse" x1="191.2515" y1="287.6396" x2="147.5992" y2="40.075">
		<stop  offset="0.3189" style="stop-color:#FFFFFF;stop-opacity:0"/>
		<stop  offset="1" style="stop-color:#26A8CC"/>
	</linearGradient>
	<path class="st5" d="M165.2,292.2c0,0-79.2-38-104.5-114.5c2.6-32,3.4-96.7,2.6-107.9c58.3,1.4,79.5-26.9,100.4-32.6
		c20.9,5.7,42.1,34,100.4,32.6c-0.8,11.2,0,75.9,2.6,107.9c-25.3,76.5-104.5,114.5-104.5,114.5"/>
</g>
<g id="Layer_4">
	<path class="st6" d="M164.3,316.3c0,0-94.1-45.2-124.2-136.2c3.1-38,4.1-115,3.1-128.3c69.3,1.7,94.5-32,119.3-38.7
		c24.9,6.7,50,40.4,119.3,38.7c-1,13.3,0,90.3,3.1,128.3c-30.1,90.9-124.2,136.2-124.2,136.2"/>
	<path class="st7" d="M158.7,182.7c-2.7-1.7-4.5-4.6-4.5-8c0-5.2,4.2-9.5,9.5-9.5c5.2,0,9.5,4.2,9.5,9.5c0,3.4-1.8,6.3-4.4,8
		 M196.1,152.2h-64.9c-6.6,0-12,5.4-12,12v37.9c0,6.6,5.4,12,12,12h64.9c6.6,0,12-5.4,12-12v-37.9
		C208.1,157.6,202.7,152.2,196.1,152.2z M168.7,182.6v13.5c0,2.8-2.3,5-5,5s-5-2.3-5-5v-13.5"/>
	<path class="st8" d="M136.1,153.2v-20c0-6.6,5.4-12,12-12H177c6.6,0,12,5.4,12,12v20"/>
	<path class="st6" d="M165.2,291.2c0,0-79.2-38-104.5-114.5c2.6-32,3.4-96.7,2.6-107.9c58.3,1.4,79.5-26.9,100.4-32.6
		c20.9,5.7,42.1,34,100.4,32.6c-0.8,11.2,0,75.9,2.6,107.9c-25.3,76.5-104.5,114.5-104.5,114.5"/>
</g>
</svg>
