<?xml version="1.0" encoding="utf-8"?>
<!-- Generator: Adobe Illustrator 21.0.0, SVG Export Plug-In . SVG Version: 6.00 Build 0)  -->
<svg version="1.1" xmlns="http://www.w3.org/2000/svg" xmlns:xlink="http://www.w3.org/1999/xlink" x="0px" y="0px"
	 viewBox="0 0 327.3 327.3" style="enable-background:new 0 0 327.3 327.3;" xml:space="preserve">
<style type="text/css">
	.st0{fill:none;stroke:#3B2288;stroke-width:10;stroke-miterlimit:10;}
	.st1{fill:none;stroke:url(#SVGID_1_);stroke-width:34;stroke-miterlimit:10;}
	.st2{fill:url(#SVGID_2_);stroke:url(#SVGID_3_);stroke-miterlimit:10;}
	.st3{fill:#3B2288;}
</style>
<g id="Clock">
	<circle class="st0" cx="162.5" cy="163.5" r="150.5"/>
</g>
<g id="Layer_5">
	<linearGradient id="SVGID_1_" gradientUnits="userSpaceOnUse" x1="93.6656" y1="219.7804" x2="236.22" y2="49.8907">
		<stop  offset="0" style="stop-color:#FFFFFF;stop-opacity:0"/>
		<stop  offset="1" style="stop-color:#26A8CC"/>
	</linearGradient>
	<path class="st1" d="M279.5,163.5c0-65.2-52.8-118-118-118s-118,52.8-118,118"/>
	<linearGradient id="SVGID_2_" gradientUnits="userSpaceOnUse" x1="160.471" y1="237.3333" x2="160.471" y2="224.8295">
		<stop  offset="0" style="stop-color:#FFFFFF;stop-opacity:0"/>
		<stop  offset="0.5842" style="stop-color:#7EBDD9"/>
	</linearGradient>
	<linearGradient id="SVGID_3_" gradientUnits="userSpaceOnUse" x1="134.6057" y1="261.9065" x2="186.3363" y2="200.2564">
		<stop  offset="0" style="stop-color:#FFFFFF;stop-opacity:0"/>
		<stop  offset="1" style="stop-color:#26A8CC"/>
	</linearGradient>
	<rect x="106.4" y="224.8" class="st2" width="108.1" height="12.5"/>
</g>
<g id="Rectangle">
</g>
<g id="Layer_3">
	<path class="st3" d="M56,166.7H31.3c-2.2,0-4-1.8-4-4v0c0-2.2,1.8-4,4-4H56c2.2,0,4,1.8,4,4v0C60,164.9,58.2,166.7,56,166.7z"/>
	<path class="st3" d="M68.3,113.7l-21.4-12.3c-1.9-1.1-2.6-3.6-1.5-5.5l0,0c1.1-1.9,3.6-2.6,5.5-1.5l21.4,12.3
		c1.9,1.1,2.6,3.6,1.5,5.5l0,0C72.6,114.1,70.2,114.8,68.3,113.7z"/>
	<path class="st3" d="M106,73.6L93.7,52.2c-1.1-1.9-0.4-4.4,1.5-5.5l0,0c1.9-1.1,4.4-0.4,5.5,1.5L113,69.6c1.1,1.9,0.4,4.4-1.5,5.5
		l0,0C109.6,76.2,107.1,75.5,106,73.6z"/>
	<path class="st3" d="M158.5,57.4V32.7c0-2.2,1.8-4,4-4l0,0c2.2,0,4,1.8,4,4v24.7c0,2.2-1.8,4-4,4l0,0
		C160.3,61.4,158.5,59.6,158.5,57.4z"/>
	<path class="st3" d="M212.1,69.6l12.3-21.4c1.1-1.9,3.6-2.6,5.5-1.5l0,0c1.9,1.1,2.6,3.6,1.5,5.5L219,73.6
		c-1.1,1.9-3.6,2.6-5.5,1.5l0,0C211.7,74,211,71.5,212.1,69.6z"/>
	<path class="st3" d="M252.2,107.4L273.5,95c1.9-1.1,4.4-0.4,5.5,1.5v0c1.1,1.9,0.4,4.4-1.5,5.5l-21.4,12.3
		c-1.9,1.1-4.4,0.4-5.5-1.5v0C249.6,110.9,250.3,108.5,252.2,107.4z"/>
	<path class="st3" d="M268.2,159.7h24.7c2.2,0,4,1.8,4,4l0,0c0,2.2-1.8,4-4,4h-24.7c-2.2,0-4-1.8-4-4l0,0
		C264.2,161.5,266,159.7,268.2,159.7z"/>
	<path class="st3" d="M255.9,213l21.4,12.3c1.9,1.1,2.6,3.6,1.5,5.5l0,0c-1.1,1.9-3.6,2.6-5.5,1.5L251.9,220
		c-1.9-1.1-2.6-3.6-1.5-5.5h0C251.6,212.6,254,211.9,255.9,213z"/>
	<path class="st3" d="M72.6,220.1l-21.4,12.3c-1.9,1.1-4.4,0.4-5.5-1.5h0c-1.1-1.9-0.4-4.4,1.5-5.5l21.4-12.3
		c1.9-1.1,4.4-0.4,5.5,1.5l0,0C75.2,216.5,74.5,219,72.6,220.1z"/>
	<circle class="st0" cx="162.5" cy="163.5" r="16.5"/>
	<path class="st3" d="M173.7,146.4l42.4-44.2c1.5-1.6,4.1-1.6,5.7-0.1l0.9,0.9c1.6,1.5,1.6,4.1,0.1,5.7l-42.4,44.2
		c-1.5,1.6-4.1,1.6-5.7,0.1l-0.9-0.9C172.2,150.6,172.2,148,173.7,146.4z"/>
	<path class="st0" d="M206.7,264.8h-88.3c-6.6,0-12-5.4-12-12v-18.9c0-6.6,5.4-12,12-12h88.3c6.6,0,12,5.4,12,12v18.9
		C218.7,259.4,213.3,264.8,206.7,264.8z"/>
</g>
<g id="Layer_4">
</g>
</svg>
